<?xml version="1.0" standalone="no"?>
<!DOCTYPE svg PUBLIC "-//W3C//DTD SVG 20010904//EN"
 "http://www.w3.org/TR/2001/REC-SVG-20010904/DTD/svg10.dtd">
<svg version="1.0" xmlns="http://www.w3.org/2000/svg"
 width="142.000000pt" height="142.000000pt" viewBox="0 0 142.000000 142.000000"
 preserveAspectRatio="xMidYMid meet">
<metadata>
Created by potrace 1.11, written by Peter Selinger 2001-2013
</metadata>
<g transform="translate(0.000000,142.000000) scale(0.100000,-0.100000)"
fill="#000000" stroke="none">
<path d="M934 1402 c-69 -20 -178 -94 -197 -135 -9 -17 -36 -52 -60 -77 -35
-36 -61 -51 -128 -74 -138 -47 -159 -70 -131 -139 16 -42 8 -57 -31 -57 -19 0
-37 -37 -37 -76 0 -14 -6 -24 -15 -24 -21 0 -37 -37 -30 -71 5 -23 1 -36 -20
-61 -22 -26 -26 -39 -21 -67 9 -64 146 -167 246 -187 22 -5 32 -13 36 -33 18
-93 42 -165 76 -231 49 -97 107 -175 120 -162 6 6 -7 32 -37 75 -55 80 -97
170 -119 258 -9 36 -16 69 -16 75 0 5 34 8 76 7 158 -3 274 64 308 178 28 94
18 216 -22 262 -22 24 -87 16 -167 -22 -114 -54 -182 -150 -211 -297 -8 -43
-17 -80 -19 -82 -9 -9 -90 20 -140 50 -64 39 -105 86 -105 120 0 25 5 33 45
66 11 10 13 18 5 32 -10 18 -7 19 32 15 63 -7 78 1 78 39 0 19 -6 52 -14 74
-12 33 -12 43 -2 51 9 7 16 7 23 0 29 -29 46 38 18 75 -7 10 -19 15 -24 11
-19 -11 -24 25 -6 45 10 11 47 29 84 41 92 30 120 45 168 91 50 49 73 43 37
-10 -17 -24 -24 -46 -21 -65 3 -23 0 -27 -17 -25 -38 5 -23 -25 24 -49 49 -24
111 -34 116 -18 2 6 -14 18 -36 27 -47 19 -68 56 -54 95 5 14 17 31 26 37 23
14 66 -17 90 -65 23 -44 43 -45 41 -1 -2 50 -47 110 -99 133 -24 11 -44 24
-44 29 0 16 123 97 173 114 26 9 66 16 87 16 l40 0 -30 -32 c-17 -17 -33 -42
-37 -55 -11 -46 7 -118 52 -208 66 -133 88 -233 87 -400 -1 -109 -6 -173 -21
-250 -9 -49 -7 -65 8 -65 19 0 41 205 37 345 -2 77 -6 149 -9 160 -3 11 -10
42 -17 70 -6 27 -31 90 -55 140 -42 88 -63 148 -59 173 1 6 2 19 3 27 0 9 19
35 42 60 22 24 38 49 34 55 -9 15 -99 10 -161 -8z m-118 -207 c18 -13 18 -14
-4 -8 -12 3 -25 9 -28 14 -8 14 10 11 32 -6z m-403 -347 c6 -22 5 -22 -8 -4
-17 22 -20 40 -6 32 5 -3 11 -16 14 -28z m517 -43 c31 -111 11 -215 -55 -280
-53 -54 -118 -75 -228 -75 l-80 0 6 48 c21 166 83 262 208 321 30 15 74 28 96
29 40 3 40 2 53 -43z m-540 -31 c0 -2 -7 -4 -15 -4 -8 0 -15 4 -15 10 0 5 7 7
15 4 8 -4 15 -8 15 -10z"/>
</g>
</svg>
